<?xml version="1.0" encoding="UTF-8" standalone="no"?>
<!-- Created with Inkscape (http://www.inkscape.org/) -->

<svg
   width="32"
   height="32"
   viewBox="0 0 32 32"
   version="1.1"
   id="svg5"
   xmlns="http://www.w3.org/2000/svg"
   xmlns:svg="http://www.w3.org/2000/svg">
  <defs
     id="defs2" />
  <g
     id="layer1">
    <g
       aria-label="B"
       id="text113"
       style="font-size:32px">
      <path
         d="m 14.544,4.5759998 q 4.288,0 6.464,1.28 2.208,1.248 2.208,4.3840002 0,1.344 -0.512,2.4 -0.48,1.024 -1.472,1.728 -0.96,0.672 -2.368,0.928 v 0.16 q 1.44,0.224 2.592,0.832 1.184,0.608 1.856,1.728 0.672,1.12 0.672,2.912 0,2.08 -0.96,3.552 -0.96,1.44 -2.752,2.208 -1.76,0.736 -4.224,0.736 H 8.0160002 V 4.5759998 Z M 15.12,14.304 q 2.944,0 4.032,-0.928 1.088,-0.96 1.088,-2.816 0,-1.8880002 -1.344,-2.6880002 -1.312,-0.832 -4.224,-0.832 H 10.896 V 14.304 Z m -4.224,2.4 v 8.288 h 4.608 q 3.04,0 4.224,-1.184 1.184,-1.184 1.184,-3.104 0,-1.216 -0.544,-2.112 -0.512,-0.896 -1.76,-1.376 -1.216,-0.512 -3.328,-0.512 z"
         id="path112" />
    </g>
  </g>
</svg>
